# AST/ASF file generated using VICON BodyLanguage
# -----------------------------------------------
:version 1.10
:name VICON
:units
  mass 1.0
  length 0.45
  angle deg
:documentation
   .ast/.asf automatically generated from VICON data using
   VICON BodyBuilder and BodyLanguage model FoxedUp or BRILLIANT.MOD
:root
   order TX TY TZ RX RY RZ
   axis XYZ
   position 0 0 0  
   orientation 0 0 0 
:bonedata
  begin
     id 1 
     name lhipjoint
     direction 0.603808 -0.713975 0.35448 
     length 2.2025 
     axis 0 0 0  XYZ
  end
  begin
     id 2 
     name lfemur
     direction 0.34202 -0.939693 0  
     length 6.55877  
     axis 0 0 20  XYZ
    dof rx ry rz
    limits (-160.0 20.0)
           (-70.0 70.0)
           (-60.0 70.0)
  end
  begin
     id 3 
     name ltibia
     direction 0.34202 -0.939693 0   
     length 6.80302   
     axis 0 0 20   XYZ
    dof rx
    limits (-10.0 170.0)
  end
  begin
     id 4 
     name lfoot
     direction 0.091848 -0.25235 0.963267   
     length 2.03446   
     axis -90 7.62852e-016 20   XYZ
    dof rx rz
    limits (-45.0 90.0)
           (-70.0 20.0)
  end
  begin
     id 5 
     name ltoes
     direction 1.53608e-011 -4.21925e-011 1   
     length 1.02033   
     axis -90 7.62852e-016 20   XYZ
    dof rx
    limits (-90.0 20.0)
  end
  begin
     id 6 
     name rhipjoint
     direction -0.587285 -0.724947 0.359928   
     length 2.16916  
     axis 0 0 0  XYZ 
  end
  begin
     id 7 
     name rfemur
     direction -0.34202 -0.939693 0   
     length 6.43173   
     axis 0 0 -20   XYZ
    dof rx ry rz
    limits (-160.0 20.0)
           (-70.0 70.0)
           (-70.0 60.0)
  end
  begin
     id 8 
     name rtibia
     direction -0.34202 -0.939693 0   
     length 6.70662   
     axis 0 0 -20   XYZ
    dof rx
    limits (-10.0 170.0)
 end
 begin
     id 9 
     name rfoot
     direction -0.11854 -0.325686 0.938018   
     length 2.0773  
     axis -90 -7.62852e-016 -20   XYZ
    dof rx rz
    limits (-45.0 90.0)
           (-20.0 70.0)
  end
  begin
     id 10 
     name rtoes
     direction -1.53547e-011 -4.21838e-011 1   
     length 1.03267   
     axis -90 -7.62852e-016 -20   XYZ
    dof rx
    limits (-90.0 20.0)
  end
  begin
     id 11 
     name lowerback
     direction -0.0286554 0.999539 0.0100613   
     length 2.08751   
     axis 0 0 0   XYZ
    dof rx ry rz
    limits (-20.0 45.0)
           (-30.0 30.0)
           (-30.0 30.0)
  end
  begin
     id 12 
     name upperback
     direction 0.0227093 0.999705 -0.00860929   
     length 2.08517   
     axis 0 0 0   XYZ
    dof rx ry rz
    limits (-20.0 45.0)
           (-30.0 30.0)
           (-30.0 30.0)
  end
  begin
     id 13 
     name thorax
     direction 0.0351627 0.999285 -0.013892   
     length 2.08412   
     axis 0 0 0   XYZ
    dof rx ry rz
    limits (-20.0 45.0)
           (-30.0 30.0)
           (-30.0 30.0)
  end
  begin
     id 14 
     name lowerneck
     direction -0.0696283 0.997344 0.0213922   
     length 1.44164   
     axis 0 0 0   XYZ
    dof rx ry rz
    limits (-20.0 45.0)
           (-30.0 30.0)
           (-30.0 30.0)
  end
  begin
     id 15 
     name upperneck
     direction 0.0531 0.990412 -0.127531   
     length 1.45022   
     axis 0 0 0   XYZ
    dof rx ry rz
    limits (-20.0 45.0)
           (-30.0 30.0)
           (-30.0 30.0)
  end
  begin
     id 16
     name head
     direction 0.0188154 0.998548 -0.0504727  
     length 1.45845  
     axis 0 0 0   XYZ
    dof rx ry rz
    limits (-20.0 45.0)
           (-30.0 30.0)
           (-30.0 30.0)
  end
  begin
     id 17 
     name lclavicle
     direction 0.961559 0.260051 0.088188  
     length 2.86057  
     axis 0 0 0   XYZ
    dof ry rz
    limits (-20.0 10.0)
           (0.0 20.0)
  end
  begin
     id 18 
     name lhumerus
     direction 1 -4.48959e-011 2.88185e-027   
     length 4.36901   
     axis 180 -30 -90   XYZ
    dof rx ry rz
    limits (-60.0 90.0)
           (-90.0 90.0)
           (-90.0 90.0)
  end
  begin
     id 19
     name lradius
     direction 1 -4.48965e-011 -3.92618e-028   
     length 3.21737   
     axis 180 -30 -90   XYZ
    dof rx
    limits (-10.0 170.0)
  end
  begin
     id 20
     name lwrist
     direction 1 -4.49037e-011 2.57246e-027   
     length 1.60869   
     axis -1.61769e-015 90 90   XYZ
    dof ry
    limits (-180.0 0.0)
 end
  begin
     id 21 
     name lhand
     direction 1 -4.48807e-011 5.12958e-027   
     length 0.564313   
     axis -3.27988e-015 90 90   XYZ
    dof rx rz
    limits (-90.0 90.0)
           (-45.0 45.0)
  end
  begin
     id 22 
     name lfingers
     direction 1 -4.48879e-011 1.02687e-026   
     length 0.454963   
     axis -6.5598e-015 90 90   XYZ
    dof rx
    limits (0.0 90.0)
  end
  begin
     id 23
     name lthumb
     direction 0.707107 -6.3475e-011 0.707107   
     length 0.653239   
     axis -90 45 2.19363e-014   XYZ
    dof rx rz
    limits (-45.0 45.0)
           (-45.0 45.0)
  end
  begin
     id 24 
     name rclavicle
     direction -0.954677 0.253915 0.155304   
     length 3.11497  
     axis 0 0 0   XYZ 
    dof ry rz
    limits (-10.0 20.0)
           (-20.0 0.0)
  end
  begin
     id 25 
     name rhumerus
     direction -1 -4.48958e-011 -8.20169e-028  
     length 4.34118   
     axis 180 30 90   XYZ
    dof rx ry rz
    limits (-90.0 60.0)
           (-90.0 90.0)
           (-90.0 90.0)
  end
  begin
     id 26 
     name rradius
     direction -1 -4.48978e-011 1.5676e-027   
     length 3.09531   
     axis 180 30 90   XYZ
    dof rx
    limits (-10.0 170.0)
  end
  begin
     id 27 
     name rwrist
     direction -1 -4.49001e-011 2.57123e-027   
     length 1.54765   
     axis -1.61769e-015 -90 -90   XYZ
    dof ry
    limits (-180.0 0.0)
  end
  begin
     id 28
     name rhand
     direction -1 -4.48847e-011 5.13225e-027   
     length 0.597446   
     axis -3.27988e-015 -90 -90   XYZ
    dof rx rz
    limits (-90.0 90.0)
           (-45.0 45.0)
  end
  begin
     id 29
     name rfingers
     direction -1 -4.49094e-011 1.02974e-026   
     length 0.481677   
     axis -6.5598e-015 -90 -90   XYZ
    dof rx
    limits (0.0 90.0)
  end
  begin
     id 30
     name rthumb
     direction -0.707107 -6.34859e-011 0.707107   
     length 0.691594   
     axis -90 -45 -2.19363e-014   XYZ
    dof rx rz
    limits (-45.0 45.0)
           (-45.0 45.0)
  end
:hierarchy
  begin
    root lhipjoint rhipjoint lowerback
    lhipjoint lfemur
    lfemur ltibia
    ltibia lfoot
    lfoot ltoes
    rhipjoint rfemur
    rfemur rtibia
    rtibia rfoot
    rfoot rtoes
    lowerback upperback
    upperback thorax
    thorax lowerneck lclavicle rclavicle
    lowerneck upperneck
    upperneck head
    lclavicle lhumerus
    lhumerus lradius
    lradius lwrist
    lwrist lhand lthumb
    lhand lfingers
    rclavicle rhumerus
    rhumerus rradius
    rradius rwrist
    rwrist rhand rthumb
    rhand rfingers
  end

#!OML:ASF I:\Acrobat_Osman\acrobat\cartwheel_test 2\Patient 1\Session 1\acrobat.ASF
:FULLY-SPECIFIED
:DEGREES
142
root 6.52179 13.4972 7.13702 11.8054 -0.970322 7.88866
lowerback 0.630072 -1.77368 -6.35111
upperback 6.65176 -2.51042 5.86642
thorax 7.26284 -1.8684 9.76069
lowerneck -2.46569 4.03764 2.49142
upperneck -0.726738 5.31065 2.1177
head 0.184297 2.65602 0.282882
rclavicle 4.53229e-014 -9.54166e-015
rhumerus -52.625 -7.27983 -66.8169
rradius 44.1863
rwrist -3.87848
rhand -25.8293 32.3671
rfingers 7.12502
rthumb 0.710571 2.38855
lclavicle 4.53229e-014 -9.54166e-015
lhumerus 23.0985 -71.1305 67.4766
lradius 120.123
lwrist 20.036
lhand -16.7058 39.8976
lfingers 7.12502
lthumb 9.51925 69.6626
rfemur -63.1928 -0.0152601 -2.25365
rtibia 36.222
rfoot -13.3907 -20.9375
rtoes -10.7721
lfemur 0.447295 13.5057 -26.3691
ltibia 50.0329
lfoot -29.4685 13.5983
ltoes -35.4354
143
root 6.54709 13.4798 7.07883 11.3423 -2.19451 7.6604
lowerback 0.922863 -1.34851 -6.60934
upperback 6.84106 -1.92516 5.48998
thorax 7.15968 -1.57898 9.53494
lowerneck -2.05183 4.08359 2.71964
upperneck -1.30941 5.39801 2.01473
head -0.0499695 2.68693 0.199156
rclavicle 3.02153e-014 1.74931e-014
rhumerus -52.2074 -8.25169 -68.7702
rradius 41.6483
rwrist -1.89056
rhand -26.2734 34.0543
rfingers 7.12502
rthumb 0.281669 4.07478
lclavicle 3.02153e-014 1.74931e-014
lhumerus 18.8304 -72.0686 71.8068
lradius 120.551
lwrist 20.2616
lhand -16.6109 40.3349
lfingers 7.12502
lthumb 9.61078 70.0957
rfemur -62.6308 3.05101 -3.96218
rtibia 34.623
rfoot -15.0658 -22.184
rtoes -11.8941
lfemur 0.635391 14.5325 -26.3341
ltibia 50.4275
lfoot -29.9079 13.8534
ltoes -36.6714
144
root 6.56494 13.4473 7.03544 11.1206 -3.23485 7.32357
lowerback 1.22 -1.05825 -6.49975
upperback 6.95555 -1.53096 5.08494
thorax 6.99728 -1.35453 9.04416
lowerneck -1.62435 4.14321 2.97233
upperneck -2.0778 5.51059 1.84603
head -0.337546 2.72681 0.0892571
rclavicle -3.18055e-015 -1.11319e-014
rhumerus -51.5758 -8.9418 -70.889
rradius 39.5256
rwrist -0.146603
rhand -26.2136 34.5936
rfingers 7.12502
rthumb 0.339415 4.61417
lclavicle -3.18055e-015 -1.11319e-014
lhumerus 17.0589 -72.9429 73.6461
lradius 120.788
lwrist 20.4555
lhand -15.876 40.541
lfingers 7.12502
lthumb 10.3198 70.2678
rfemur -62.6796 5.31792 -5.04261
rtibia 33.6326
rfoot -16.419 -22.2822
rtoes -13.6172
lfemur 0.737286 15.3319 -26.2146
ltibia 50.612
lfoot -30.3606 14.0134
ltoes -37.2443
145
root 6.57811 13.4363 7.01295 11.2012 -4.05873 6.98525
lowerback 1.73148 -0.943709 -6.32127
upperback 6.83549 -1.38902 4.79381
thorax 6.51711 -1.23458 8.62553
lowerneck -1.62519 4.2743 3.07086
upperneck -2.35707 5.68916 1.61895
head -0.411736 2.81195 0.00238963
rclavicle 1.43125e-014 9.54166e-015
rhumerus -51.0327 -8.78977 -73.0404
rradius 38.3105
rwrist 0.955701
rhand -25.7015 33.4832
rfingers 7.12502
rthumb 0.834022 3.50513
lclavicle 1.43125e-014 9.54166e-015
lhumerus 16.5215 -73.7512 74.3572
lradius 120.771
lwrist 20.3048
lhand -15.506 40.9024
lfingers 7.12502
lthumb 10.6767 70.6111
rfemur -63.0372 5.68108 -4.48205
rtibia 33.0053
rfoot -15.8384 -20.3394
rtoes -19.752
lfemur 0.699952 15.7316 -26.248
ltibia 50.4123
lfoot -30.6943 14.1834
ltoes -37.2392
146
root 6.58877 13.4615 7.02354 11.5622 -4.58134 6.651
lowerback 2.00628 -0.990694 -6.14588
upperback 6.68089 -1.46071 4.66645
thorax 6.19078 -1.23558 8.38021
lowerneck -1.74705 4.42856 3.17568
upperneck -2.61459 5.88849 1.15413
head -0.451909 2.91015 -0.153664
rclavicle 3.97569e-015 1.59028e-014
rhumerus -50.554 -8.10593 -74.977
rradius 38.1914
rwrist 1.61667
rhand -25.6415 33.3345
rfingers 7.12502
rthumb 0.892021 3.35661
lclavicle 3.97569e-015 1.59028e-014
lhumerus 17.2327 -74.6662 74.0095
lradius 120.549
lwrist 19.5815
lhand -15.3641 40.6833
lfingers 7.12502
lthumb 10.8136 70.3849
rfemur -63.4844 5.58576 -3.75389
rtibia 32.6988
rfoot -16.5647 -18.5962
rtoes -22.4883
lfemur 0.607627 15.7134 -26.3882
ltibia 49.8493
lfoot -30.8334 14.3923
ltoes -37.0018
147
root 6.59329 13.5243 7.06806 12.1895 -4.85458 6.32961
lowerback 2.06388 -1.20655 -6.07578
upperback 6.4629 -1.75458 4.70864
thorax 5.97836 -1.36369 8.37319
lowerneck -1.80029 4.62377 3.33307
upperneck -2.91886 6.14009 0.479654
head -0.507878 3.03482 -0.384691
rclavicle -9.54166e-015 0
rhumerus -50.1893 -6.8146 -76.6853
rradius 39.0464
rwrist 1.77709
rhand -26.2331 34.1705
rfingers 7.12502
rthumb 0.320651 4.191
lclavicle -9.54166e-015 0
lhumerus 18.3253 -75.3663 73.355
lradius 120.176
lwrist 19.3886
lhand -15.1391 40.3691
lfingers 7.12502
lthumb 11.0306 70.0593
rfemur -63.9486 5.70541 -3.46057
rtibia 32.4773
rfoot -18.521 -18.2925
rtoes -21.0053
lfemur 0.4609 15.3275 -26.5773
ltibia 48.8623
lfoot -30.3717 14.6621
ltoes -36.5145
148
root 6.58331 13.62 7.14299 13.0678 -4.96362 5.86759
lowerback 2.00591 -1.50382 -6.02795
upperback 6.18514 -2.16061 4.95362
thorax 5.80348 -1.55653 8.59627
lowerneck -2.20588 4.84261 3.2712
upperneck -2.88421 6.40864 -0.0233611
head -0.413118 3.17453 -0.513499
rclavicle -1.59028e-014 -3.18055e-014
rhumerus -49.8381 -5.20765 -78.0648
rradius 40.6782
rwrist 1.14566
rhand -26.6915 33.7915
rfingers 7.12502
rthumb -0.122137 3.81176
lclavicle -1.59028e-014 -3.18055e-014
lhumerus 20.0269 -75.8129 72.1142
lradius 119.642
lwrist 20.0319
lhand -15.5066 40.2907
lfingers 7.12502
lthumb 10.6761 69.9994
rfemur -64.4801 5.95458 -3.14338
rtibia 32.3098
rfoot -20.4109 -18.6975
rtoes -18.112
lfemur 0.172974 14.7278 -26.5569
ltibia 47.5664
lfoot -29.0655 14.9921
ltoes -36.5675
149
root 6.56318 13.7405 7.2493 14.166 -5.07256 5.30443
lowerback 1.85545 -1.81429 -5.90661
upperback 5.78101 -2.5821 5.26647
thorax 5.55189 -1.74786 8.84815
lowerneck -2.69945 5.10536 3.23691
upperneck -2.61109 6.73325 -0.390836
head -0.233021 3.34243 -0.59751
rclavicle -2.46493e-014 3.18055e-015
rhumerus -49.5829 -3.86032 -79.018
rradius 42.6674
rwrist -0.220894
rhand -26.8233 32.4886
rfingers 7.12502
rthumb -0.249402 2.50899
lclavicle -2.46493e-014 3.18055e-015
lhumerus 21.0819 -76.1486 71.3051
lradius 119.04
lwrist 20.903
lhand -15.9579 40.7158
lfingers 7.12502
lthumb 10.2408 70.4465
rfemur -65.1166 6.11478 -2.47591
rtibia 32.2248
rfoot -20.4142 -18.7038
rtoes -19.6246
lfemur -0.259865 14.1632 -26.3642
ltibia 46.1052
lfoot -27.0325 15.2879
ltoes -37.578
150
root 6.53774 13.8747 7.38828 15.2795 -5.31699 4.61372
lowerback 1.77005 -2.11767 -5.57405
upperback 5.23904 -2.99328 5.55147
thorax 5.10034 -1.90977 8.9482
lowerneck -2.88656 5.4104 3.38804
upperneck -2.21971 7.12222 -0.725979
head -0.0583833 3.54012 -0.706833
rclavicle 2.3059e-014 -1.27222e-014
rhumerus -49.625 -2.68951 -79.7347
rradius 44.7676
rwrist -2.24127
rhand -26.8227 30.9665
rfingers 7.12502
rthumb -0.24887 0.986908
lclavicle 2.3059e-014 -1.27222e-014
lhumerus 20.3982 -76.3891 71.8393
lradius 118.455
lwrist 21.5587
lhand -15.6035 41.354
lfingers 7.12502
lthumb 10.5827 71.0676
rfemur -65.7517 6.22908 -1.2703
rtibia 32.3745
rfoot -19.1979 -16.9312
rtoes -23.9261
lfemur -0.580585 13.6957 -25.9717
ltibia 44.6554
lfoot -24.7924 15.0693
ltoes -37.9279
151
root 6.50302 14.0122 7.56097 16.1988 -5.59867 3.71069
lowerback 1.91642 -2.39427 -5.03184
upperback 4.62305 -3.37186 5.88601
thorax 4.4225 -2.03894 8.99273
lowerneck -2.83383 5.68206 3.57421
upperneck -1.66897 7.47564 -1.0198
head 0.127891 3.72035 -0.813506
rclavicle -6.36111e-015 3.97569e-014
rhumerus -49.9835 -1.62131 -80.1697
rradius 46.9237
rwrist -4.42766
rhand -26.9825 30.0019
rfingers 7.12502
rthumb -0.403172 0.0225775
lclavicle -6.36111e-015 3.97569e-014
lhumerus 18.4952 -76.5925 73.4846
lradius 117.701
lwrist 21.9252
lhand -15.6018 41.7252
lfingers 7.12502
lthumb 10.5843 71.4386
rfemur -66.0238 6.71289 0.181819
rtibia 32.6097
rfoot -19.315 -14.013
rtoes -26.9623
lfemur -0.485203 13.264 -25.1707
ltibia 43.2214
lfoot -22.5845 14.1506
ltoes -37.3211
152
root 6.46284 14.1193 7.76137 17.0231 -5.90043 3.04552
lowerback 2.18634 -2.66384 -4.56692
upperback 3.91488 -3.72709 6.10615
thorax 3.57182 -2.151 8.97097
lowerneck -2.85086 5.89302 3.76121
upperneck -0.888638 7.74639 -1.20531
head 0.392871 3.86045 -0.881947
rclavicle -3.18055e-015 6.99722e-014
rhumerus -50.554 -0.73281 -80.41
rradius 48.9901
rwrist -6.17611
rhand -27.3223 29.3904
rfingers 7.12502
rthumb -0.731377 -0.588126
lclavicle -3.18055e-015 6.99722e-014
lhumerus 15.6369 -76.7448 75.9678
lradius 116.741
lwrist 22.1094
lhand -16.0587 41.6987
lfingers 7.12502
lthumb 10.1435 71.4342
rfemur -66.1251 7.28509 1.38227
rtibia 32.9994
rfoot -19.4814 -10.7931
rtoes -28.6125
lfemur -0.262659 12.7894 -24.5422
ltibia 41.9502
lfoot -20.1386 13.1874
ltoes -37.0073
